# 3ds Max Wavefront OBJ Exporter v0.97b - (c)2007 guruware
# File Created: 10.04.2018 13:35:52

mtllib SM_Inj_Prt_001.mtl

#
# object SM_Inj_Prt_001
#

v  -0.2551 4.5305 1.2826
v  -0.7265 4.5305 1.0873
v  -0.7265 -4.5305 1.0873
v  -0.2551 -4.5305 1.2826
v  -1.0873 4.5305 0.7265
v  -1.0873 -4.5305 0.7265
v  -1.2826 4.5305 0.2551
v  -1.2826 -4.5305 0.2551
v  -1.2826 4.5305 -0.2551
v  -1.0873 4.5305 -0.7265
v  -1.0873 -4.5305 -0.7265
v  -1.2826 -4.5305 -0.2551
v  -0.7265 4.5305 -1.0873
v  -0.7265 -4.5305 -1.0873
v  -0.2551 4.5305 -1.2826
v  -0.2551 -4.5305 -1.2826
v  0.2551 4.5305 -1.2826
v  0.7265 4.5305 -1.0873
v  0.7265 -4.5305 -1.0873
v  0.2551 -4.5305 -1.2826
v  1.0873 4.5305 -0.7265
v  1.0873 -4.5305 -0.7265
v  1.2826 4.5305 -0.2551
v  1.2826 -4.5305 -0.2551
v  1.2826 4.5305 0.2551
v  1.0873 4.5305 0.7265
v  1.0873 -4.5305 0.7265
v  1.2826 -4.5305 0.2551
v  0.7265 4.5305 1.0873
v  0.7265 -4.5305 1.0873
v  0.2551 4.5305 1.2826
v  0.2551 -4.5305 1.2826
# 32 vertices

vn -0.1951 -0.0000 0.9808
vn -0.5556 -0.0000 0.8315
vn -0.8315 -0.0000 0.5556
vn -0.9808 -0.0000 0.1951
vn -0.9808 0.0000 -0.1951
vn -0.8315 0.0000 -0.5556
vn -0.5556 0.0000 -0.8315
vn -0.1951 0.0000 -0.9808
vn 0.1951 0.0000 -0.9808
vn 0.5556 0.0000 -0.8315
vn 0.8315 0.0000 -0.5556
vn 0.9808 0.0000 -0.1951
vn 0.9808 -0.0000 0.1951
vn 0.8315 -0.0000 0.5556
vn 0.5556 -0.0000 0.8315
vn 0.1951 -0.0000 0.9808
# 16 vertex normals

vt 0.2642 0.5371 0.0000
vt 0.2960 0.5371 0.0000
vt 0.2960 0.9907 0.0000
vt 0.2642 0.9907 0.0000
vt 0.3278 0.5371 0.0000
vt 0.3278 0.9907 0.0000
vt 0.3596 0.5371 0.0000
vt 0.3596 0.9907 0.0000
vt 0.3914 0.5371 0.0000
vt 0.4232 0.5371 0.0000
vt 0.4232 0.9907 0.0000
vt 0.3914 0.9907 0.0000
vt 0.4549 0.5371 0.0000
vt 0.4549 0.9907 0.0000
vt 0.4867 0.5371 0.0000
vt 0.4867 0.9907 0.0000
vt 0.0098 0.5371 0.0000
vt 0.0416 0.5371 0.0000
vt 0.0416 0.9907 0.0000
vt 0.0098 0.9907 0.0000
vt 0.0734 0.5371 0.0000
vt 0.0734 0.9907 0.0000
vt 0.1052 0.5371 0.0000
vt 0.1052 0.9907 0.0000
vt 0.1370 0.5371 0.0000
vt 0.1688 0.5371 0.0000
vt 0.1688 0.9907 0.0000
vt 0.1370 0.9907 0.0000
vt 0.2006 0.5371 0.0000
vt 0.2006 0.9907 0.0000
vt 0.2324 0.5371 0.0000
vt 0.2324 0.9907 0.0000
vt 0.5185 0.5371 0.0000
vt 0.5185 0.9907 0.0000
# 34 texture coords

g SM_Inj_Prt_001
usemtl BS_Glss_001
s 1
f 1/1/1 2/2/2 3/3/2 
f 3/3/2 4/4/1 1/1/1 
f 2/2/2 5/5/3 6/6/3 
f 6/6/3 3/3/2 2/2/2 
f 5/5/3 7/7/4 8/8/4 
f 8/8/4 6/6/3 5/5/3 
f 9/9/5 10/10/6 11/11/6 
f 11/11/6 12/12/5 9/9/5 
f 10/10/6 13/13/7 14/14/7 
f 14/14/7 11/11/6 10/10/6 
f 13/13/7 15/15/8 16/16/8 
f 16/16/8 14/14/7 13/13/7 
f 17/17/9 18/18/10 19/19/10 
f 19/19/10 20/20/9 17/17/9 
f 18/18/10 21/21/11 22/22/11 
f 22/22/11 19/19/10 18/18/10 
f 21/21/11 23/23/12 24/24/12 
f 24/24/12 22/22/11 21/21/11 
f 25/25/13 26/26/14 27/27/14 
f 27/27/14 28/28/13 25/25/13 
f 26/26/14 29/29/15 30/30/15 
f 30/30/15 27/27/14 26/26/14 
f 29/29/15 31/31/16 32/32/16 
f 32/32/16 30/30/15 29/29/15 
f 31/31/16 1/1/1 4/4/1 
f 4/4/1 32/32/16 31/31/16 
f 7/7/4 9/9/5 12/12/5 
f 12/12/5 8/8/4 7/7/4 
f 15/15/8 17/33/9 20/34/9 
f 20/34/9 16/16/8 15/15/8 
f 23/23/12 25/25/13 28/28/13 
f 28/28/13 24/24/12 23/23/12 
# 32 faces

